<?xml version="1.0" encoding="utf-8"?>
<!-- Generator: Adobe Illustrator 19.2.0, SVG Export Plug-In . SVG Version: 6.00 Build 0)  -->
<svg version="1.1" id="Слой_1" xmlns="http://www.w3.org/2000/svg" xmlns:xlink="http://www.w3.org/1999/xlink" x="0px" y="0px"
	 viewBox="0 0 400 113" style="enable-background:new 0 0 400 113;" xml:space="preserve">
<style type="text/css">
	.st0{fill:#323232;}
	.st1{fill:url(#SVGID_1_);}
	.st2{fill:url(#SVGID_2_);}
	.st3{fill:#2DA8CB;}
</style>
<g>
	<g>
		<path class="st0" d="M0,75.1V21.2h27.7c2.4,0,4.5,0.4,6.5,1.1c2,0.7,3.6,1.7,5,3c1.4,1.3,2.4,2.9,3.2,4.8c0.8,1.9,1.1,4.1,1.1,6.5
			c0,2.4-0.4,4.6-1.1,6.5c-0.7,1.9-1.8,3.5-3.2,4.9c-1.4,1.4-3,2.4-5,3.1c-2,0.7-4.1,1.1-6.5,1.1h-9.6c-1.7,0-3.5,0.1-5.2,0.4
			s-3.4,0.9-5.1,1.7v20.8H0z M27.7,44.3c5.3,0,7.9-2.5,7.9-7.6c0-2.7-0.7-4.7-2-5.8c-1.4-1.1-3.3-1.7-5.9-1.7H7.9l0,17.3
			c1.6-1,3.3-1.6,5-1.8s3.5-0.4,5.2-0.4H27.7z"/>
		<path class="st0" d="M73.4,52.8h-6.3c-1.7,0-3.5,0.1-5.2,0.4s-3.4,0.8-5,1.7v20.2H49V21.2h28.4c2.5,0,4.7,0.4,6.8,1.1
			c2.1,0.7,3.9,1.7,5.4,3.1c1.5,1.4,2.7,3,3.5,5c0.8,2,1.3,4.2,1.3,6.8c0,4.1-1.1,7.4-3.3,10.1c-2.2,2.6-5.3,4.4-9.2,5.4l4.2,8.6
			c0.9,1.3,1.6,2.3,2.3,3c0.6,0.8,1.2,1.4,1.8,1.8c0.6,0.5,1.2,0.8,1.8,0.9c0.6,0.2,1.4,0.3,2.3,0.3l2.5-0.1v8c-1.5,0-3.1,0-4.7-0.1
			c-1.6-0.1-3.1-0.4-4.5-0.9c-1.4-0.5-2.8-1.4-4.1-2.5c-1.3-1.2-2.5-2.8-3.5-4.9L73.4,52.8z M56.9,47c1.6-1,3.3-1.6,5-1.8
			c1.7-0.2,3.4-0.3,5.2-0.3h10.3c2.7,0,5-0.6,6.7-1.9c1.7-1.3,2.5-3.4,2.5-6.2c0-1.4-0.2-2.6-0.7-3.5c-0.5-1-1.1-1.7-2-2.3
			c-0.8-0.6-1.8-1-2.9-1.3c-1.1-0.3-2.3-0.4-3.6-0.4H56.9V47z"/>
		<g>
			<linearGradient id="SVGID_1_" gradientUnits="userSpaceOnUse" x1="132.1571" y1="78.9506" x2="157.2499" y2="35.4886">
				<stop  offset="0" style="stop-color:#323232"/>
				<stop  offset="1" style="stop-color:#2DA8CB"/>
			</linearGradient>
			<path class="st1" d="M151.1,31.9c0,0-1.4,6.4-4.7,13.3c-4.1,8.5-10.8,15.9-19,24.2c-4.9,5-1.5,6.6,2,7c3.2,0.4,6.5-0.1,9.6-1.4
				c4.5-1.9,10.9-6,14.5-14.5C159.2,46.5,151.1,31.9,151.1,31.9z"/>
			<linearGradient id="SVGID_2_" gradientUnits="userSpaceOnUse" x1="109.5106" y1="65.729" x2="144.6671" y2="4.8362">
				<stop  offset="0" style="stop-color:#323232"/>
				<stop  offset="1" style="stop-color:#2DA8CB"/>
			</linearGradient>
			<path class="st2" d="M160,13.7C160,13.7,160,13.7,160,13.7c-0.1-0.1-0.3-0.1-0.6,0c-0.9,0.2-2.7,0.9-4.6,3.6
				c-0.3,0.5-0.6,0.9-0.9,1.4l-1.6,0.7c0,0,0,0,0,0l-1,1.6c0,0,0,0.1,0,0.1c0,0,0,0.1,0.1,0.1l1.8,0.2c0,0.6,0.2,0.9,0.3,1.1l0,0
				l-1.7,1.6c-1.2,1.1-2.5,2-4.1,2.6c-1.1,0.4-2.3,0.7-3,0.3c-1.6-1-1.6-1-1.6-1s-15.9-9.8-32.3,1c-10.4,6.9-11.5,21.2-10.4,28.4
				c0,0,1.3,14.9,17.3,5.5c16-9.3,31.9-31,34.6-34.9c0.7-1.1,1.4-2.1,1.7-2.8l0.1-0.2c0.3,0.1,0.6,0.1,1,0l0.9,1.6
				c0,0,0,0.1,0.1,0.1c0,0,0,0,0,0c0,0,0,0,0.1,0l1.2-1.5c0,0,0,0,0-0.1l0.1-1.8c0.5-0.6,0.9-1.1,0.9-1.1
				C161,16.3,160.1,13.8,160,13.7z"/>
		</g>
		<path class="st0" d="M170.2,75.1h-7.9V21.2h38v8h-30.1v16.4c1.6-1,3.3-1.5,5-1.8c1.7-0.2,3.4-0.3,5.2-0.3h11.8v8h-11.8
			c-1.7,0-3.5,0.1-5.2,0.4s-3.4,0.8-5,1.7V75.1z"/>
		<path class="st0" d="M205.4,75.1V21.2h7.7v53.9H205.4z"/>
		<path class="st0" d="M245.8,29v46h-7.7V29h-19.2v-8h45.9v8H245.8z"/>
	</g>
	
		<rect x="269.9" y="-1.8" transform="matrix(0.9659 0.2588 -0.2588 0.9659 23.8412 -68.0664)" class="st3" width="1.1" height="116.7"/>
	<g>
		<path class="st0" d="M290.3,90.4c0,2.3-0.5,4.1-1.5,5.4c-1,1.3-2.4,2-4,2c-2,0-3.6-0.8-4.6-2.3l-0.1,2h-1.5V76.9h1.6v8.2
			c1-1.6,2.5-2.4,4.5-2.4c1.7,0,3.1,0.7,4.1,2c1,1.3,1.5,3.1,1.5,5.5V90.4z M288.7,90.1c0-1.9-0.4-3.4-1.1-4.4
			c-0.7-1-1.8-1.6-3.1-1.6c-1,0-1.9,0.3-2.6,0.8c-0.7,0.5-1.3,1.2-1.6,2.2v6.6c0.8,1.8,2.2,2.7,4.3,2.7c1.3,0,2.4-0.5,3.1-1.6
			C288.3,93.8,288.7,92.2,288.7,90.1z"/>
		<path class="st0" d="M297.2,95.2l4.3-12.2h1.7l-6.2,17l-0.3,0.8c-0.8,1.8-2,2.7-3.7,2.7c-0.4,0-0.8-0.1-1.2-0.2l0-1.3l0.8,0.1
			c0.8,0,1.4-0.2,1.9-0.6c0.5-0.4,0.9-1.1,1.2-2l0.7-2L291,83h1.8L297.2,95.2z"/>
		<path class="st0" d="M312.3,89.6v8h-1.7V78h6.7c2,0,3.6,0.5,4.8,1.6c1.2,1,1.8,2.5,1.8,4.3c0,1.8-0.6,3.3-1.7,4.3
			c-1.1,1-2.8,1.5-4.9,1.5H312.3z M312.3,88.2h5c1.6,0,2.8-0.4,3.7-1.1c0.8-0.8,1.3-1.8,1.3-3.2c0-1.4-0.4-2.4-1.3-3.2
			c-0.8-0.8-2-1.2-3.6-1.2h-5.1V88.2z"/>
		<path class="st0" d="M335.1,97.6c-0.2-0.5-0.3-1.1-0.3-2c-0.6,0.7-1.3,1.3-2.2,1.7c-0.9,0.4-1.8,0.6-2.8,0.6
			c-1.4,0-2.5-0.4-3.4-1.2c-0.9-0.8-1.3-1.8-1.3-3c0-1.4,0.6-2.5,1.8-3.4c1.2-0.8,2.8-1.2,4.9-1.2h2.9v-1.7c0-1-0.3-1.9-1-2.5
			c-0.6-0.6-1.6-0.9-2.8-0.9c-1.1,0-2,0.3-2.8,0.9c-0.7,0.6-1.1,1.3-1.1,2.1l-1.6,0c0-1.2,0.5-2.2,1.6-3c1.1-0.8,2.4-1.3,4-1.3
			c1.6,0,2.9,0.4,3.8,1.2c0.9,0.8,1.4,1.9,1.4,3.4v6.9c0,1.4,0.1,2.5,0.4,3.2v0.2H335.1z M330.1,96.4c1.1,0,2-0.3,2.9-0.8
			s1.5-1.2,1.8-2.1v-3.2h-2.9c-1.6,0-2.9,0.3-3.8,0.9c-0.9,0.6-1.4,1.4-1.4,2.3c0,0.8,0.3,1.5,0.9,2
			C328.3,96.1,329.1,96.4,330.1,96.4z"/>
		<path class="st0" d="M344,95.2l4.3-12.2h1.7l-6.2,17l-0.3,0.8c-0.8,1.8-2,2.7-3.7,2.7c-0.4,0-0.8-0.1-1.2-0.2l0-1.3l0.8,0.1
			c0.8,0,1.4-0.2,1.9-0.6c0.5-0.4,0.9-1.1,1.2-2l0.7-2L337.7,83h1.8L344,95.2z"/>
		<path class="st0" d="M352.8,83l0.1,2.4c0.5-0.9,1.2-1.5,2-2c0.8-0.4,1.7-0.7,2.7-0.7c2.3,0,3.8,0.9,4.4,2.8
			c0.5-0.9,1.2-1.6,2.1-2.1c0.9-0.5,1.8-0.7,2.9-0.7c3.1,0,4.7,1.7,4.8,5.1v9.7h-1.6V88c0-1.3-0.3-2.3-0.8-2.9
			c-0.6-0.6-1.4-0.9-2.7-0.9c-1.2,0-2.1,0.4-2.9,1.1s-1.2,1.6-1.3,2.7v9.6h-1.6v-9.7c0-1.2-0.3-2.2-0.9-2.8
			c-0.6-0.6-1.5-0.9-2.7-0.9c-1,0-1.9,0.3-2.6,0.9c-0.7,0.6-1.3,1.4-1.6,2.6v10h-1.6V83H352.8z"/>
		<path class="st0" d="M373.8,90.1c0-1.4,0.3-2.7,0.8-3.8c0.5-1.1,1.3-2,2.3-2.6s2.1-0.9,3.4-0.9c1.9,0,3.5,0.7,4.7,2
			c1.2,1.4,1.8,3.2,1.8,5.4v0.3c0,1.4-0.3,2.7-0.8,3.8c-0.5,1.1-1.3,2-2.3,2.6c-1,0.6-2.1,0.9-3.4,0.9c-1.9,0-3.5-0.7-4.7-2
			c-1.2-1.4-1.8-3.2-1.8-5.4V90.1z M375.4,90.5c0,1.7,0.5,3.2,1.4,4.3s2.1,1.7,3.5,1.7c1.5,0,2.6-0.6,3.5-1.7
			c0.9-1.1,1.4-2.6,1.4-4.4v-0.3c0-1.1-0.2-2.1-0.6-3.1s-1-1.6-1.7-2.1c-0.7-0.5-1.6-0.8-2.6-0.8c-1.4,0-2.6,0.6-3.5,1.7
			c-0.9,1.1-1.4,2.6-1.4,4.4V90.5z"/>
		<path class="st0" d="M390.6,83l0.1,2.5c0.5-0.9,1.2-1.6,2-2.1c0.8-0.5,1.7-0.7,2.7-0.7c1.6,0,2.7,0.4,3.5,1.3
			c0.8,0.9,1.1,2.2,1.2,4v9.6h-1.6V88c0-1.3-0.3-2.3-0.8-2.9c-0.5-0.6-1.4-1-2.6-1c-1,0-1.9,0.3-2.6,0.9c-0.8,0.6-1.3,1.5-1.7,2.5
			v10H389V83H390.6z"/>
	</g>
</g>
</svg>
